<?xml version="1.0" standalone="no"?>
<!DOCTYPE svg PUBLIC "-//W3C//DTD SVG 20010904//EN"
 "http://www.w3.org/TR/2001/REC-SVG-20010904/DTD/svg10.dtd">
<svg version="1.0" xmlns="http://www.w3.org/2000/svg"
 width="560.000000pt" height="560.000000pt" viewBox="0 0 560.000000 560.000000"
 preserveAspectRatio="xMidYMid meet">

<g transform="translate(0.000000,560.000000) scale(0.100000,-0.100000)"
fill="#000000" stroke="none">
<path d="M2825 5526 c-97 -13 -163 -33 -216 -65 -19 -12 -44 -25 -57 -31 -61
-27 -207 -167 -279 -270 -26 -36 -54 -74 -64 -85 -10 -11 -33 -49 -51 -85 -19
-36 -45 -82 -57 -103 -26 -42 -18 -44 -90 22 -94 85 -150 119 -276 164 -50 17
-83 21 -201 21 -90 1 -146 -3 -155 -10 -8 -7 -29 -15 -47 -19 -32 -7 -115 -48
-182 -90 -62 -39 -163 -157 -201 -236 -47 -96 -55 -121 -68 -198 -11 -68 -33
-111 -56 -111 -8 0 -48 -23 -90 -51 -89 -61 -187 -170 -221 -248 -14 -31 -31
-68 -39 -83 -8 -14 -15 -37 -15 -51 0 -14 -5 -38 -11 -54 -13 -33 -13 -211 1
-263 26 -102 53 -198 63 -224 37 -93 175 -344 207 -376 14 -14 50 -70 50 -79
0 -5 4 -11 8 -13 10 -4 124 -145 137 -169 5 -10 13 -19 17 -19 28 0 -11 -60
-108 -166 -24 -27 -135 -191 -192 -284 -54 -90 -106 -201 -133 -285 -12 -38
-26 -79 -30 -90 -29 -72 -35 -276 -12 -385 19 -87 55 -176 91 -223 38 -49 170
-174 202 -191 81 -41 91 -48 105 -70 9 -13 20 -52 26 -87 6 -35 16 -77 23 -94
7 -16 19 -46 27 -65 16 -44 90 -154 132 -198 18 -18 48 -43 67 -55 19 -12 41
-27 47 -33 22 -21 135 -70 205 -89 82 -22 286 -17 358 9 81 30 200 93 220 117
21 26 115 97 122 93 5 -3 14 -16 19 -27 5 -12 18 -35 28 -52 11 -16 32 -52 47
-80 34 -63 49 -83 194 -259 64 -77 250 -206 298 -206 9 0 26 -6 37 -13 36 -25
185 -39 282 -27 85 11 179 37 205 57 7 5 31 19 54 29 86 42 243 191 321 305
66 97 81 121 93 144 6 11 19 34 29 50 28 43 61 109 61 122 0 6 7 16 15 23 8 7
15 21 15 32 0 11 6 32 13 46 8 15 21 42 30 60 9 19 17 46 17 62 0 15 7 33 15
40 8 7 15 20 15 29 0 9 5 22 12 29 15 15 103 16 131 0 28 -15 270 -37 406 -38
139 0 331 19 358 36 12 8 34 14 47 14 23 0 77 17 131 41 11 5 31 13 45 19 69
28 184 117 226 174 67 90 93 132 94 146 0 8 7 29 16 45 27 49 38 122 38 245 0
120 -12 210 -32 247 -7 12 -12 29 -12 38 0 9 -9 37 -21 63 -11 26 -25 58 -30
72 -26 62 -99 196 -140 258 -16 24 -29 47 -29 52 0 4 -4 10 -9 12 -9 3 -81 95
-81 104 0 8 -22 34 -62 74 -34 33 -88 104 -88 115 0 2 14 18 30 35 17 17 30
34 30 38 0 4 13 21 28 37 15 17 51 62 80 100 28 39 55 75 60 80 44 55 192 329
192 357 0 9 6 21 13 25 13 8 43 110 60 203 21 117 9 343 -21 395 -6 11 -23 46
-37 77 -28 61 -68 112 -148 187 -48 45 -143 110 -161 111 -5 0 -34 12 -65 27
-31 14 -74 30 -96 34 -22 4 -60 12 -85 18 -88 20 -279 34 -372 28 -51 -4 -131
-9 -178 -12 -47 -3 -117 -13 -155 -21 -39 -8 -93 -14 -120 -12 -45 3 -50 6
-53 28 -2 14 -8 30 -12 35 -5 6 -18 39 -30 75 -12 36 -42 106 -66 157 -24 50
-44 94 -44 97 0 4 -13 25 -30 48 -16 22 -30 47 -30 54 0 7 -20 42 -45 78 -25
37 -45 70 -45 75 0 5 -7 11 -15 15 -8 3 -15 11 -15 19 0 24 -230 238 -280 260
-8 4 -33 18 -55 32 -22 13 -49 24 -60 25 -12 0 -26 5 -33 12 -7 7 -40 15 -74
19 -35 4 -76 9 -93 12 -16 3 -70 -1 -120 -7z m228 -226 c31 -11 80 -35 109
-54 61 -39 225 -200 234 -230 4 -12 20 -37 35 -56 16 -19 29 -38 29 -42 0 -4
13 -26 28 -50 46 -69 122 -223 122 -247 0 -6 9 -28 20 -48 11 -21 20 -45 20
-53 0 -9 5 -21 11 -27 6 -6 9 -21 7 -33 -2 -19 -19 -28 -103 -56 -55 -18 -107
-33 -115 -34 -8 0 -27 -6 -42 -14 -14 -8 -46 -17 -70 -21 -24 -4 -47 -11 -53
-15 -5 -4 -23 -10 -40 -14 -16 -4 -43 -13 -60 -20 -16 -8 -41 -19 -55 -24 -14
-6 -46 -20 -72 -31 -26 -12 -54 -21 -62 -21 -8 0 -16 -5 -18 -11 -7 -22 -92
-22 -141 0 -25 12 -51 21 -57 21 -5 0 -18 4 -28 10 -9 5 -39 19 -67 30 -27 12
-64 28 -82 36 -17 8 -36 14 -42 14 -14 0 -193 57 -239 76 -18 8 -42 14 -54 14
-47 0 -58 25 -58 136 0 70 5 111 15 131 7 15 24 48 35 73 12 25 27 54 33 65
28 48 83 139 99 164 10 14 22 35 27 46 5 11 49 61 97 110 84 86 193 165 227
165 8 0 28 7 43 15 44 23 195 20 267 -5z m1662 -995 c22 -8 48 -15 57 -15 10
0 32 -6 50 -14 146 -62 160 -72 278 -201 26 -28 58 -128 66 -208 6 -68 -11
-223 -28 -241 -4 -6 -8 -24 -8 -41 0 -18 -9 -42 -20 -55 -11 -13 -20 -27 -20
-31 0 -9 -63 -140 -83 -174 -54 -91 -146 -222 -197 -282 -84 -99 -98 -98 -147
5 -68 140 -196 280 -303 329 -70 32 -124 53 -140 53 -10 0 -38 9 -63 20 -51
23 -50 19 -72 200 -21 172 -30 224 -64 352 -17 64 -31 130 -31 145 0 16 -5 34
-11 40 -14 14 -15 71 -1 85 6 6 53 19 104 28 125 24 571 27 633 5z m-948 -130
c7 -27 17 -76 22 -107 5 -32 12 -62 16 -68 14 -23 64 -273 65 -323 0 -14 -5
-16 -27 -11 -16 4 -39 15 -53 25 -84 58 -267 169 -349 211 -53 28 -114 61
-136 73 -22 13 -49 28 -60 33 -11 5 -28 19 -39 31 -18 20 -18 21 10 31 16 6
38 14 49 19 11 5 45 17 75 26 30 10 71 24 90 31 19 7 51 16 70 19 19 3 44 10
55 15 48 21 152 49 174 47 20 -2 26 -11 38 -52z m-2852 10 c39 -118 195 -292
316 -352 127 -63 148 -67 336 -67 l172 1 -4 -91 c-3 -74 -26 -203 -37 -211
-53 -37 -258 -193 -269 -204 -216 -209 -312 -291 -340 -290 -17 0 -43 23 -86
74 -35 40 -63 77 -63 80 0 4 -13 24 -30 45 -16 21 -30 40 -30 43 0 3 -13 26
-30 50 -16 25 -30 49 -30 54 0 5 -13 27 -30 49 -16 21 -30 43 -30 48 0 5 -13
37 -29 70 -44 90 -81 228 -81 300 1 93 17 197 37 236 27 51 74 120 83 120 3 0
26 18 51 40 52 47 80 49 94 5z m1360 -6 c39 -12 78 -25 87 -30 10 -5 28 -9 40
-9 13 0 36 -7 52 -15 15 -8 37 -15 48 -15 10 0 36 -9 56 -20 20 -10 45 -22 56
-25 18 -5 18 -6 0 -27 -11 -11 -32 -27 -49 -35 -16 -7 -43 -22 -60 -33 -16
-11 -37 -23 -45 -26 -66 -28 -186 -94 -258 -142 -35 -23 -68 -42 -73 -42 -5 0
-9 -3 -9 -8 0 -4 -21 -19 -47 -32 -27 -14 -56 -33 -66 -42 -10 -10 -26 -18
-36 -18 -22 0 -36 27 -23 44 5 6 12 40 16 76 9 90 32 144 93 220 29 36 66 93
83 127 27 54 39 68 60 72 3 1 37 -8 75 -20z m805 -321 c69 -35 127 -66 130
-69 3 -3 23 -14 45 -25 121 -61 222 -118 280 -159 36 -25 67 -45 70 -45 23 0
195 -124 195 -140 0 -5 -21 -20 -47 -32 -226 -110 -355 -307 -380 -578 -5 -55
22 -207 49 -280 55 -148 176 -274 338 -356 l52 -26 -28 -24 c-16 -13 -56 -41
-89 -61 -33 -20 -74 -47 -91 -60 -17 -13 -35 -23 -40 -23 -6 0 -28 -13 -50
-29 -34 -25 -82 -53 -204 -117 -19 -11 -37 -21 -40 -24 -3 -3 -43 -25 -90 -49
-47 -24 -116 -60 -155 -82 -102 -55 -127 -53 -277 25 -226 117 -254 132 -285
154 -17 12 -35 22 -39 22 -10 0 -209 121 -292 177 -34 24 -65 43 -68 43 -14 0
-144 91 -152 107 -25 48 -35 679 -16 989 10 161 10 161 39 187 17 15 33 27 37
27 4 0 35 19 70 42 70 47 96 64 118 75 8 4 33 19 54 35 21 15 43 28 48 28 5 0
26 13 46 29 20 17 69 46 107 66 39 20 77 40 85 45 8 5 22 11 30 14 8 4 42 22
75 41 33 18 110 59 170 90 90 45 116 55 145 51 19 -3 91 -34 160 -68z m-1400
-718 c-3 -8 -5 -177 -5 -374 0 -260 -3 -360 -11 -363 -20 -7 -81 42 -232 184
-172 162 -192 183 -192 196 0 8 127 136 241 243 84 77 164 134 184 131 13 -1
18 -8 15 -17z m-410 -686 c148 -139 249 -223 345 -290 72 -49 83 -63 99 -118
18 -64 32 -241 19 -249 -5 -3 -55 -1 -112 5 -221 24 -395 -36 -551 -192 -68
-68 -94 -102 -128 -172 -27 -56 -49 -88 -59 -88 -44 0 -148 107 -195 200 -32
64 -33 68 -33 195 1 108 5 143 24 205 13 41 28 82 32 90 4 8 24 49 45 90 51
103 95 184 103 190 4 3 31 42 61 86 73 108 150 193 175 194 12 0 81 -58 175
-146z m3520 94 c28 -29 83 -100 122 -158 81 -118 218 -379 218 -413 0 -13 4
-27 9 -32 5 -6 14 -45 20 -88 25 -177 6 -272 -78 -390 -35 -48 -130 -127 -152
-127 -7 0 -20 -6 -28 -13 -9 -8 -61 -29 -116 -47 l-100 -33 -280 -1 c-221 -1
-286 2 -310 13 -16 8 -50 17 -75 20 l-45 6 1 45 c1 25 9 77 18 115 9 39 21 95
27 125 5 30 13 64 19 75 11 24 28 126 42 255 12 117 31 192 49 201 8 3 24 11
35 17 12 6 39 14 60 18 22 4 48 13 59 20 11 8 25 14 32 14 25 0 140 77 193
130 67 66 103 119 154 223 27 56 42 77 56 77 11 0 42 -24 70 -52z m-2770 -668
c73 -50 169 -110 175 -110 5 0 24 -12 43 -27 30 -22 93 -57 313 -169 52 -27
74 -48 64 -63 -7 -12 -92 -51 -110 -51 -7 0 -26 -7 -41 -15 -16 -8 -37 -15
-47 -15 -10 0 -28 -5 -40 -12 -12 -6 -40 -15 -62 -19 -22 -4 -59 -13 -82 -20
-39 -12 -43 -11 -62 12 -11 13 -20 29 -21 35 0 14 -86 141 -124 184 -34 38
-49 79 -65 181 -17 103 -15 118 12 111 12 -3 33 -13 47 -22z m1835 -90 c-10
-61 -22 -113 -26 -116 -5 -3 -9 -24 -9 -47 0 -23 -6 -62 -14 -87 -8 -25 -22
-74 -31 -110 -10 -36 -19 -71 -21 -77 -5 -18 -74 -16 -98 2 -11 8 -32 15 -46
15 -14 0 -64 13 -110 30 -47 16 -94 30 -105 30 -11 0 -29 7 -39 15 -11 8 -28
15 -39 15 -27 0 -117 43 -117 56 0 15 27 36 82 63 26 12 50 26 53 32 4 5 14 9
24 9 10 0 24 7 31 15 7 8 18 15 26 15 7 0 30 12 51 26 21 14 49 30 62 35 23 9
60 32 216 135 72 47 113 66 124 57 2 -1 -4 -52 -14 -113z m-863 -426 c15 -8
33 -14 41 -14 8 0 20 -7 27 -15 7 -8 19 -15 28 -15 8 0 44 -13 79 -30 34 -16
70 -30 79 -30 9 0 30 -6 47 -13 18 -8 59 -22 92 -31 33 -10 74 -22 90 -28 17
-5 46 -14 65 -18 39 -9 99 -31 117 -43 13 -8 -6 -91 -32 -139 -8 -14 -15 -33
-15 -41 0 -9 -7 -28 -14 -44 -8 -15 -17 -35 -20 -43 -3 -8 -10 -22 -15 -30 -5
-8 -14 -26 -20 -40 -5 -14 -24 -47 -41 -75 -16 -27 -33 -57 -37 -65 -6 -14
-33 -52 -96 -135 -59 -79 -197 -205 -224 -205 -5 0 -14 -5 -20 -11 -47 -47
-284 -70 -354 -35 -18 9 -38 16 -45 16 -25 0 -130 80 -200 152 -88 91 -177
221 -254 375 l-60 118 0 99 c0 120 4 126 103 157 40 12 86 28 104 35 17 8 46
14 65 14 18 0 42 7 52 15 11 8 28 15 38 15 10 0 48 14 85 31 69 32 89 41 178
77 54 23 107 21 157 -4z"/>
</g>
</svg>
